# Blender v3.0.0 OBJ File: ''
# www.blender.org
mtllib EmptySelf.mtl
v 10.570934 3.116642 4.772160
v 10.570934 22.531342 4.772160
v 10.570934 3.116642 -4.772160
v 10.570934 22.531342 -4.772160
v 13.512421 3.116642 4.772160
v 13.512421 22.531342 4.772160
v 13.512421 3.116642 -4.772160
v 13.512421 22.531342 -4.772160
v 10.570934 2.458405 -5.095751
v 10.570934 2.458405 5.095751
v 10.570934 23.189579 5.095751
v 10.570934 23.189579 -5.095751
v 13.512421 23.189579 -5.095751
v 13.512421 2.458405 -5.095751
v 13.512421 2.458405 5.095751
v 13.512421 23.189579 5.095751
v 10.570934 6.581573 4.772160
v 10.570934 6.581573 -4.772160
v 13.512421 6.581573 4.772160
v 13.512421 6.581573 -4.772160
v 10.570934 10.967261 4.772160
v 10.570934 10.967261 -4.772160
v 13.512421 10.967261 4.772160
v 13.512421 10.967261 -4.772160
v 10.570934 14.967394 4.772160
v 10.570934 14.967394 -4.772160
v 13.512421 14.967394 4.772160
v 13.512421 14.967394 -4.772160
v 10.570934 18.678360 4.772160
v 10.570934 18.678360 -4.772160
v 13.512421 18.678360 4.772160
v 13.512421 18.678360 -4.772160
v 10.570934 7.081573 -4.772160
v 10.570934 7.081573 4.772160
v 13.512421 7.081573 4.772160
v 13.512421 7.081573 -4.772160
v 10.570934 11.467261 4.772160
v 10.570934 11.467261 -4.772160
v 13.512421 11.467261 -4.772160
v 13.512421 11.467261 4.772160
v 10.570934 15.467394 4.772160
v 10.570934 15.467394 -4.772160
v 13.512421 15.467394 -4.772160
v 13.512421 15.467394 4.772160
v 10.570934 19.178360 4.772160
v 10.570934 19.178360 -4.772160
v 13.512421 19.178360 -4.772160
v 13.512421 19.178360 4.772160
v 10.426351 2.458405 -5.095751
v 10.426351 2.458405 5.095751
v 10.426351 23.189579 5.095751
v 10.426351 23.189579 -5.095751
v 10.426351 3.116642 -4.772160
v 10.426351 3.116642 4.772160
v 10.426351 22.531342 4.772160
v 10.426351 22.531342 -4.772160
vt 0.375000 0.250000
vt 0.625000 0.250000
vt 0.625000 0.500000
vt 0.375000 0.500000
vt 0.375000 0.750000
vt 0.625000 0.750000
vt 0.625000 1.000000
vt 0.375000 1.000000
vt 0.125000 0.500000
vt 0.125000 0.750000
vt 0.875000 0.500000
vt 0.875000 0.750000
vt 0.125000 0.750000
vt 0.125000 0.500000
vt 0.875000 0.500000
vt 0.875000 0.750000
vt 0.625000 1.000000
vt 0.375000 1.000000
vt 0.375000 0.250000
vt 0.625000 0.250000
vt 0.617062 0.507938
vt 0.382938 0.507938
vt 0.382938 0.742062
vt 0.617062 0.742062
vt 0.617062 0.007938
vt 0.617062 0.242062
vt 0.382938 0.007938
vt 0.382938 0.242062
vt 0.382938 0.242062
vt 0.382938 0.507938
vt 0.382938 0.742062
vt 0.382938 0.007938
vt 0.382938 0.242062
vt 0.382938 0.507938
vt 0.382938 0.742062
vt 0.382938 0.007938
vt 0.382938 0.242062
vt 0.382938 0.507938
vt 0.382938 0.742062
vt 0.382938 0.007938
vt 0.382938 0.242062
vt 0.382938 0.507938
vt 0.382938 0.742062
vt 0.382938 0.007938
vt 0.382938 0.242062
vt 0.382938 0.007938
vt 0.382938 0.742062
vt 0.382938 0.507938
vt 0.382938 0.242062
vt 0.382938 0.007938
vt 0.382938 0.742062
vt 0.382938 0.507938
vt 0.382938 0.242062
vt 0.382938 0.007938
vt 0.382938 0.742062
vt 0.382938 0.507938
vt 0.382938 0.242062
vt 0.382938 0.007938
vt 0.382938 0.742062
vt 0.382938 0.507938
vt 0.382938 0.007938
vt 0.617062 0.007938
vt 0.617062 0.242062
vt 0.382938 0.242062
vt 0.375000 0.000000
vt 0.625000 0.000000
vn 0.0000 0.0000 -1.0000
vn 0.0000 0.0000 1.0000
vn 0.0000 -1.0000 0.0000
vn 0.0000 1.0000 0.0000
vn 1.0000 0.0000 0.0000
vn -1.0000 0.0000 0.0000
usemtl None
s off
f 9/1/1 12/2/1 13/3/1 14/4/1
f 15/5/2 16/6/2 11/7/2 10/8/2
f 9/9/3 14/4/3 15/5/3 10/10/3
f 13/3/4 12/11/4 11/12/4 16/6/4
f 9/9/3 10/10/3 50/13/3 49/14/3
f 11/12/4 12/11/4 52/15/4 51/16/4
f 10/8/2 11/7/2 51/17/2 50/18/2
f 12/2/1 9/1/1 49/19/1 52/20/1
f 8/21/5 7/22/5 14/4/5 13/3/5
f 7/22/5 5/23/5 15/5/5 14/4/5
f 6/24/5 8/21/5 13/3/5 16/6/5
f 5/23/5 6/24/5 16/6/5 15/5/5
f 2/25/3 4/26/3 8/21/3 6/24/3
f 1/27/1 2/25/1 6/24/1 5/23/1
f 3/28/4 1/27/4 5/23/4 7/22/4
f 4/26/2 3/28/2 7/22/2 8/21/2
f 18/29/3 20/30/3 19/31/3 17/32/3
f 22/33/3 24/34/3 23/35/3 21/36/3
f 26/37/3 28/38/3 27/39/3 25/40/3
f 30/41/3 32/42/3 31/43/3 29/44/3
f 33/45/4 34/46/4 35/47/4 36/48/4
f 38/49/4 37/50/4 40/51/4 39/52/4
f 42/53/4 41/54/4 44/55/4 43/56/4
f 46/57/4 45/58/4 48/59/4 47/60/4
f 19/31/5 20/30/5 36/48/5 35/47/5
f 27/39/5 28/38/5 43/56/5 44/55/5
f 17/32/2 19/31/2 35/47/2 34/46/2
f 25/40/2 27/39/2 44/55/2 41/54/2
f 20/30/1 18/29/1 33/45/1 36/48/1
f 28/38/1 26/37/1 42/53/1 43/56/1
f 22/33/6 21/36/6 37/50/6 38/49/6
f 30/41/6 29/44/6 45/58/6 46/57/6
f 23/35/5 24/34/5 39/52/5 40/51/5
f 31/43/5 32/42/5 47/60/5 48/59/5
f 21/36/2 23/35/2 40/51/2 37/50/2
f 29/44/2 31/43/2 48/59/2 45/58/2
f 24/34/1 22/33/1 38/49/1 39/52/1
f 18/29/6 17/32/6 34/46/6 33/45/6
f 32/42/1 30/41/1 46/57/1 47/60/1
f 26/37/6 25/40/6 41/54/6 42/53/6
f 54/61/6 55/62/6 56/63/6 53/64/6
f 54/61/6 53/64/6 49/19/6 50/65/6
f 55/62/6 54/61/6 50/65/6 51/66/6
f 56/63/6 55/62/6 51/66/6 52/20/6
f 53/64/6 56/63/6 52/20/6 49/19/6
